<svg xmlns="http://www.w3.org/2000/svg" xmlns:xlink="http://www.w3.org/1999/xlink" viewBox="0 0 203.73 238.26"><defs><style>.cls-1{fill:url(#New_Gradient_Swatch);}</style><linearGradient id="New_Gradient_Swatch" y1="119.13" x2="203.73" y2="119.13" gradientUnits="userSpaceOnUse"><stop offset="0" stop-color="#6acbe0"/><stop offset="1" stop-color="#6859ea"/></linearGradient></defs><title>Asset 1</title><g id="Layer_2" data-name="Layer 2"><g id="Layer_2-2" data-name="Layer 2"><path id="_Compound_Path_" data-name="&lt;Compound Path&gt;" class="cls-1" d="M202,109.67a11.38,11.38,0,0,0,0-12.16V63.67L178.61,49.39a12.06,12.06,0,0,0-7-4.25L117.4,12a12.07,12.07,0,0,0-24.14-.38l-89.84,52V95.44a11.43,11.43,0,0,0,0,16.31v64.68l84.65,46c0,.09,0,.17,0,.26a15.54,15.54,0,0,0,31,2l83-43Zm-179.13-7a11.36,11.36,0,0,0-1-3.86l8.12-14.41-1.6-.9v-.06l1.6.91.45-.81,66.47,37.31a8.63,8.63,0,0,0,4.93,6.18l-1.32,80.5a15.75,15.75,0,0,0-1.82.5L25.3,106h0Zm90,12.33a8.64,8.64,0,0,0-4.07-3.74V64.88a8.63,8.63,0,0,0,4.45-4.45h44.4a12.09,12.09,0,0,0,11.58,8.63,12.6,12.6,0,0,0,2.05-.18l4.26,7.52Zm64.63-49.2A12,12,0,0,0,181.1,59L192.47,66l-11.05,6.81ZM157.62,53.52h-44.4a8.67,8.67,0,0,0-4.45-4.45V23.66a12,12,0,0,0,6.58-4.83L162,47.32A12.1,12.1,0,0,0,157.62,53.52ZM101.87,23.66V49.07a8.67,8.67,0,0,0-4.45,4.45H51.29a12.07,12.07,0,0,0-5.06-6.71L95.1,18.52A12.06,12.06,0,0,0,101.87,23.66ZM32.13,66.38l-4.37,7.74L13.2,65.94l14.45-8.37A12.08,12.08,0,0,0,32.13,66.38Zm35.18-5.95H97.42a8.63,8.63,0,0,0,4.45,4.45v46.35a8.56,8.56,0,0,0-3.33,2.62L33.78,77.49,38.57,69a10.6,10.6,0,0,0,1.14.06,12.09,12.09,0,0,0,11.58-8.63H64m3,0h.24m-.61,0H67m-.65,0h.25m44,148.47a15.46,15.46,0,0,0-3.29-1.23l1.32-80.59A8.73,8.73,0,0,0,113,123l65.9-40.56,1.1,1.93,1.6-.9-1.6.93,5.6,9.94a11.41,11.41,0,0,0-3.26,15ZM192.33,92.15l-3.37-6h0l-4.17-7.39,10.26-6.31v20A11.24,11.24,0,0,0,192.33,92.15Zm-182-19.9,14,7.88-3.4,6h0l-4.13,7.36a11.39,11.39,0,0,0-5.43-1.37,10.18,10.18,0,0,0-1.11.06Zm0,100.08V115a10.18,10.18,0,0,0,1.11.06,11.44,11.44,0,0,0,8.82-4.15L92.74,211.62a15.38,15.38,0,0,0-2.93,3.94Zm107.82,45a15.39,15.39,0,0,0-2.18-4L187.48,114a11.37,11.37,0,0,0,4.81,1.07,11.09,11.09,0,0,0,2.78-.36v62.78Z"/></g></g></svg>